<?xml version="1.0" encoding="iso-8859-1"?>
<!-- Generator: Adobe Illustrator 17.1.0, SVG Export Plug-In . SVG Version: 6.00 Build 0)  -->
<!DOCTYPE svg PUBLIC "-//W3C//DTD SVG 1.1//EN" "http://www.w3.org/Graphics/SVG/1.1/DTD/svg11.dtd">
<svg version="1.1" id="Capa_1" xmlns="http://www.w3.org/2000/svg" xmlns:xlink="http://www.w3.org/1999/xlink" x="0px" y="0px"
	 viewBox="0 0 442 442" style="enable-background:new 0 0 442 442;" xml:space="preserve">
<g>
	<path d="M195.762,253.934c0.66,0,1.331-0.065,2.003-0.202c5.412-1.101,8.908-6.38,7.808-11.792
		c-3.509-17.263-5.364-36.739-5.364-56.322c0-7.879,0.295-15.763,0.877-23.435c0.418-5.507-3.708-10.311-9.214-10.729
		c-5.508-0.412-10.31,3.708-10.728,9.215c-0.621,8.173-0.935,16.566-0.935,24.948c0,21.198,1.939,41.488,5.765,60.307
		C186.937,250.664,191.105,253.934,195.762,253.934z"/>
	<path d="M348.447,135.659c-5.523,0-10,4.478-10,10s4.477,10,10,10c16.519,0,29.958,13.439,29.958,29.958
		s-13.439,29.957-29.958,29.957c-5.523,0-10,4.478-10,10s4.477,10,10,10c27.547,0,49.958-22.41,49.958-49.957
		S375.994,135.659,348.447,135.659z"/>
	<path d="M423.777,75.916c-12.911-32.373-31.223-50.201-51.563-50.201c-5.327,0-10.513,1.234-15.501,3.621L202.255,87.213h-68.062
		c-33.659,0-63.422,16.986-81.179,42.833H18.671c-4.102,0-7.787,2.504-9.297,6.317C3.154,152.065,0,168.646,0,185.644
		s3.154,33.577,9.374,49.279c1.511,3.813,5.196,6.317,9.297,6.317h34.343c15.977,23.255,41.671,39.337,71.179,42.328v122.717
		c0,5.522,4.477,10,10,10h94.193c5.523,0,10-4.478,10-10v-32.259c0-4.192-2.615-7.939-6.549-9.386l-17.77-6.533V348.7
		c5.073-0.483,9.041-4.753,9.041-9.952s-3.968-9.469-9.041-9.952v-10.434c5.073-0.483,9.041-4.753,9.041-9.952
		s-3.968-9.469-9.041-9.952v-9.96l142.878,53.538c0.054,0.02,0.108,0.033,0.161,0.052c4.867,2.264,9.921,3.43,15.108,3.43
		c20.34,0,38.652-17.828,51.563-50.201C435.528,265.855,442,226.896,442,185.617C442,144.338,435.528,105.379,423.777,75.916z
		 M25.679,221.24C21.908,209.789,20,197.845,20,185.644c0-12.202,1.908-24.146,5.679-35.598h16.748
		c-4.299,11.045-6.664,23.05-6.664,35.598c0,12.547,2.364,24.552,6.664,35.597H25.679z M55.763,185.644
		c0-43.247,35.184-78.431,78.43-78.431h56.214c-2.169,7.465-4.023,15.439-5.535,23.851c-0.977,5.437,2.637,10.635,8.073,11.611
		c0.599,0.108,1.193,0.16,1.781,0.16c4.748,0,8.961-3.396,9.831-8.232c1.947-10.831,4.487-20.805,7.562-29.728L327.1,61.79
		c-2.274,4.343-4.428,9.055-6.45,14.125c-11.751,29.464-18.223,68.423-18.223,109.702c0,41.278,6.472,80.238,18.223,109.701
		c2.032,5.095,4.199,9.829,6.485,14.191l-118.661-44.463c-1.331-0.656-2.824-1.034-4.408-1.034c-0.368,0-0.73,0.023-1.087,0.062
		h-67.7c-0.357-0.039-0.72-0.062-1.087-0.062c-0.274,0-0.543,0.019-0.811,0.041C90.509,263.614,55.763,228.618,55.763,185.644z
		 M218.386,381.004v15.281h-74.193V284.073h49.874v14.338c-5.523,0-10,4.478-10,10s4.477,10,10,10v10.337c-5.523,0-10,4.478-10,10
		s4.477,10,10,10v16.338c0,4.192,2.615,7.939,6.549,9.386L218.386,381.004z M405.201,287.909
		c-9.393,23.551-21.724,37.61-32.987,37.61s-23.594-14.06-32.987-37.61c-10.833-27.162-16.8-63.49-16.8-102.292
		s5.966-75.13,16.8-102.292c9.393-23.551,21.724-37.61,32.987-37.61s23.594,14.06,32.987,37.609
		C416.034,110.487,422,146.815,422,185.617S416.034,260.747,405.201,287.909z"/>
</g>
<g>
</g>
<g>
</g>
<g>
</g>
<g>
</g>
<g>
</g>
<g>
</g>
<g>
</g>
<g>
</g>
<g>
</g>
<g>
</g>
<g>
</g>
<g>
</g>
<g>
</g>
<g>
</g>
<g>
</g>
</svg>
